<?xml version="1.0" encoding="UTF-8"?>
<svg id="Livello_3" data-name="Livello 3" xmlns="http://www.w3.org/2000/svg" viewBox="0 0 87.77 25.31">
  <defs>
    <style>
      .cls-1 {
        fill: #0e0e10;
        stroke-width: 0px;
      }
    </style>
  </defs>
  <path class="cls-1" d="m-.2,18.81v-.61c.49-.07.82-.18.97-.33.15-.15.23-.47.23-.94v-8.74c0-.71-.41-1.07-1.22-1.07v-.61c2.65-.09,4.61-.4,5.86-.94l.28.15v1.38c1.09-.95,2.45-1.43,4.08-1.43,1.29,0,2.29.37,3,1.11.7.74,1.06,1.8,1.06,3.17v7.29c0,.36.08.6.24.73s.48.23.96.29v.56h-7.11v-.56c.39-.07.65-.17.79-.31.14-.14.2-.37.2-.71v-7.8c0-1.55-.53-2.32-1.58-2.32-.53,0-1.07.25-1.63.74v9.08c0,.48.08.79.23.94.15.15.48.26.97.33v.61H-.2Z"/>
  <path class="cls-1" d="m23.07,19.2c-1.85,0-3.41-.59-4.66-1.76-1.26-1.17-1.89-2.79-1.89-4.84s.64-3.61,1.91-4.93c1.27-1.32,2.9-1.98,4.87-1.98.85,0,1.6.12,2.24.37.65.25,1.15.55,1.5.9s.65.76.87,1.22c.22.46.36.88.42,1.26.06.38.07.74.04,1.08l-6.83,1.02c.12,1.39.51,2.49,1.17,3.29s1.47,1.22,2.42,1.25c1.14.02,2.22-.32,3.24-1.02l.43.38c-1.39,2.5-3.31,3.75-5.74,3.75Zm-1.55-8.31l2.98-.48c.15-1.17.12-2.14-.11-2.91-.23-.76-.62-1.15-1.19-1.15-1.16,0-1.72,1.51-1.68,4.54Z"/>
  <path class="cls-1" d="m35.2,18.81l-4.44-10.96c-.17-.42-.36-.71-.57-.87-.21-.15-.54-.26-.98-.31v-.61h7.57v.64c-.32.03-.54.17-.66.4-.12.23-.1.57.05,1.01l2.55,6.58c.54-1.41,1.09-3,1.63-4.77l-.76-1.89c-.34-.83-.71-1.28-1.12-1.35v-.61h7.34v.64c-.41.03-.7.17-.87.41-.17.24-.17.57,0,.99l2.45,6.3c.95-2.46,1.56-4.23,1.81-5.3.2-.83.13-1.44-.23-1.82-.36-.38-.82-.58-1.4-.6v-.61h4.89v.61c-.51.09-.91.25-1.2.48-.29.24-.54.64-.76,1.2l-4.21,10.45h-2.37l-3.14-7.78-2.96,7.78h-2.63Z"/>
  <path class="cls-1" d="m57.97,19.2c-1.63.05-2.88-.19-3.76-.71-.88-.53-1.31-1.17-1.31-1.94,0-.7.31-1.21.92-1.54.61-.33,1.33-.4,2.14-.19-.22,1.04-.18,1.92.13,2.64.31.72.85,1.08,1.63,1.08.44,0,.8-.14,1.07-.41.27-.27.41-.6.41-.99,0-.49-.21-.96-.64-1.4-.43-.44-1.2-1.02-2.32-1.73-2.06-1.27-3.08-2.68-3.08-4.23,0-1.17.45-2.15,1.36-2.92.91-.77,2.27-1.16,4.09-1.16,1.48-.05,2.59.17,3.33.66.74.49,1.11,1.07,1.11,1.73,0,.7-.31,1.21-.92,1.54-.61.33-1.32.4-2.12.19.05-.51.07-1.02.06-1.53,0-.51-.14-.96-.39-1.35-.26-.39-.62-.59-1.1-.59-.9,0-1.35.48-1.35,1.43,0,.58.22,1.1.65,1.55.43.46,1.13.98,2.1,1.55,1.36.8,2.32,1.54,2.89,2.23.57.69.85,1.41.85,2.15,0,1.17-.51,2.1-1.54,2.79s-2.43,1.07-4.22,1.13Z"/>
  <path class="cls-1" d="m65.36,18.81v-.61c.49-.07.82-.18.97-.33.15-.15.23-.47.23-.94V2.63c0-.71-.41-1.07-1.22-1.07v-.61c2.65-.09,4.61-.4,5.86-.94l.28.15v16.77c0,.48.08.79.23.94.15.15.48.26.97.33v.61h-7.32Z"/>
  <path class="cls-1" d="m76.55,25.31c-.7,0-1.31-.18-1.83-.54s-.88-.91-1.07-1.64c-.19-.74-.03-1.67.48-2.79.61.8,1.61,1.24,3.01,1.33,1.39.08,2.52-.34,3.39-1.27l-5.99-12.54c-.2-.42-.41-.71-.61-.87-.2-.15-.52-.26-.94-.31v-.61h8v.61c-.48.03-.81.18-1.01.43-.2.25-.19.6.01,1.04l2.75,6.35c.51-1.51.89-2.72,1.13-3.61.25-.89.4-1.68.45-2.36s-.05-1.16-.29-1.43c-.25-.27-.64-.42-1.19-.43v-.61h4.92v.61c-.53.09-.94.25-1.24.5-.3.25-.55.64-.75,1.19l-4,10.89c-.78,2.14-1.53,3.69-2.24,4.64-.71.95-1.71,1.43-2.98,1.43Z"/>
</svg>