<?xml version="1.0" encoding="UTF-8"?>
<svg width="95px" height="22px" viewBox="0 0 95 22" version="1.1" xmlns="http://www.w3.org/2000/svg" xmlns:xlink="http://www.w3.org/1999/xlink">
    <!-- Generator: Sketch 51 (57462) - http://www.bohemiancoding.com/sketch -->
    <title>Dunkest</title>
    <desc>Created with Sketch.</desc>
    <defs></defs>
    <g id="Page-1" stroke="none" stroke-width="1" fill="none" fill-rule="evenodd">
        <g id="logo-dunkest-brand-02" fill="#f5af19" fill-rule="nonzero">
            <path d="M6.798709,3.287025 L11.098005,2.710354 L7.612089,18.885976 C8.164026,19.289646 8.715962,19.462647 9.267899,19.462647 C12.724765,19.462647 14.845364,12.600262 14.845364,6.775885 C14.845364,2.854522 13.131455,1.326343 10.604167,1.326343 C6.275822,1.326343 2.993251,3.950197 2.993251,8.332896 C2.993251,9.803408 3.370892,10.034076 3.399941,10.293578 C1.482688,10.293578 0.291667,9.572739 0.291667,7.612058 C0.291667,3.661861 5.200998,0 11.098005,0 C16.733568,0 18.854167,3.892529 18.854167,8.304063 C18.854167,14.93578 15.106808,22 10.807512,22 C9.703638,22 8.512617,21.538663 7.263498,20.471822 L7.031103,21.625164 L2.848005,21.625164 L6.798709,3.287025 Z M28.552665,7.104167 L32.774287,7.104167 L30.663476,16.959239 C30.575526,17.336051 30.546209,17.625906 30.546209,17.886775 C30.546209,18.69837 30.927327,18.959239 31.748198,18.959239 C32.891554,18.959239 33.683108,17.85779 34.12286,16.408514 L35.354167,16.408514 C33.683108,21.133152 31.044595,21.770833 29.461486,21.770833 C27.790428,21.770833 26.735023,20.814312 26.559122,19.01721 C25.093281,21.394022 23.451539,21.770833 22.220233,21.770833 C20.461224,21.770833 19.083333,20.727355 19.083333,18.292572 C19.083333,17.741848 19.171284,17.104167 19.317868,16.408514 L21.311411,7.104167 L25.533033,7.104167 L23.422222,16.959239 C23.363589,17.249094 23.334272,17.509964 23.334272,17.770833 C23.334272,18.4375 23.568806,18.959239 24.213776,18.959239 C25.357132,18.959239 26.119369,17.85779 26.559122,16.408514 L28.552665,7.104167 Z M42.512785,11.187827 C42.512785,10.238807 42.164922,9.72116 41.469195,9.72116 C40.425605,9.72116 39.642913,10.929003 39.208084,12.366912 L37.236859,21.598284 L33.0625,21.598284 L36.135292,7.219199 L40.309651,7.219199 L39.990776,8.714624 C41.208298,7.334232 42.483796,7.104167 43.382443,7.104167 C45.237714,7.104167 46.600178,8.053186 46.600178,10.35384 C46.600178,12.683252 45.208725,16.16299 45.208725,17.773448 C45.208725,18.492402 45.498611,18.981291 46.368269,18.981291 C47.643768,18.981291 48.165563,17.945997 48.803312,16.450572 L50.020833,16.450572 C48.397472,21.166912 46.165349,21.770833 44.628953,21.770833 C42.106944,21.770833 41.208298,20.160376 41.208298,18.52116 C41.208298,16.565605 42.512785,13.02835 42.512785,11.187827 Z M59.699484,7.152856 L62.582846,7.152856 L56.757873,11.168467 C57.078247,11.110688 57.39862,11.05291 57.718994,11.05291 C59.874234,11.05291 60.922729,12.584042 60.922729,14.432956 C60.922729,14.779627 60.893604,15.155188 60.806229,15.530748 L60.485856,16.975212 C60.427606,17.264105 60.340231,17.581887 60.340231,17.899669 C60.340231,18.477455 60.57323,18.968573 61.476101,18.968573 C62.757595,18.968573 63.281842,17.928559 63.922589,16.426316 L65.14583,16.426316 C63.485716,21.279716 61.126603,21.770833 59.786859,21.770833 C57.39862,21.770833 56.117127,20.586373 56.117127,18.477455 C56.117127,18.015227 56.175376,17.524109 56.291876,16.975212 L56.524875,15.84853 C56.612249,15.47297 56.641374,15.097409 56.641374,14.779627 C56.641374,13.941838 56.350125,13.392941 55.592879,13.392941 C54.923007,13.392941 54.253135,13.797391 53.437639,14.461845 L51.923147,21.597498 L47.729167,21.597498 L51.952271,1.952786 L56.262751,1.375 L54.078386,11.544027 L59.699484,7.152856 Z M67.86978,16.91161 C67.86978,18.878439 68.57164,19.341222 69.97535,19.341222 C72.28562,19.341222 73.68934,18.068568 75.15154,16.419903 L76.14583,16.419903 C74.47892,19.080906 71.99318,21.770833 68.10373,21.770833 C65.3548,21.770833 63.541667,20.440332 63.541667,17.171926 C63.541667,13.845672 65.44253,6.875 71.43755,6.875 C74.04026,6.875 74.65439,8.205502 74.65439,9.651699 C74.65439,12.977953 71.43755,15.552184 67.92827,15.754652 C67.89902,16.159587 67.86978,16.564523 67.86978,16.91161 Z M72.25,9.665049 C72.25,8.94195 72.07931,8.479167 71.53879,8.479167 C70.08793,8.479167 68.69397,11.574029 68.125,14.4375 C70.31552,14.29288 72.25,12.065736 72.25,9.665049 Z M86.15077,16.63144 L87.375,16.63144 C85.85928,18.372595 84.25612,19.475326 82.9153,20.258845 C81.69106,21.535692 79.82557,22 78.339,22 C75.36586,22 74.08333,20.055711 74.08333,18.285537 C74.08333,16.950652 74.84119,15.963998 75.6282,15.586747 C77.26051,12.713842 78.30985,9.840937 79.21345,6.997052 L83.52741,6.416667 C83.87719,13.932651 84.16868,15.064401 84.16868,16.979671 C84.16868,17.38594 84.13953,17.734171 84.05208,18.082402 C84.83909,17.618094 85.59695,17.095748 86.15077,16.63144 Z M77.77632,16.616667 C77.77632,17.316667 77.24676,18.045833 76.48184,18.045833 C76.18764,18.045833 75.8346,17.958333 75.6875,17.666667 C75.6875,19.0375 76.18764,19.708333 77.48212,19.708333 C78.7766,19.708333 80.04167,19.0375 80.04167,16.995833 C80.04167,15.479167 79.77689,14.575 79.48269,10.083333 C78.89428,11.979167 78.07052,13.729167 77.09966,15.595833 C77.48212,15.770833 77.77632,16.120833 77.77632,16.616667 Z M92.26064,8.490211 L90.3883,17.1875 C90.30053,17.535392 90.24202,17.883283 90.24202,18.202184 C90.24202,18.810994 90.47606,19.245858 91.26596,19.245858 C91.47074,19.245858 91.79255,19.245858 92.0266,19.158886 C91.20745,21.652108 89.92021,22 88.92553,22 C86.87766,22 86,20.579443 86,18.724021 C86,18.231175 86.05851,17.709337 86.17553,17.1875 L88.04787,8.490211 L87.08245,8.490211 L87.31649,7.330572 L88.28191,7.330572 L89.15957,3.329819 L93.48936,2.75 C93.48936,2.75 93.05053,4.721386 92.49468,7.330572 L94.25,7.330572 L94.01596,8.490211 L92.26064,8.490211 Z" id="Dunkest"></path>
        </g>
    </g>
</svg>